<?xml version="1.0" standalone="no"?><!DOCTYPE svg PUBLIC "-//W3C//DTD SVG 1.1//EN" "http://www.w3.org/Graphics/SVG/1.1/DTD/svg11.dtd"><svg t="1688343816601" class="icon" viewBox="0 0 1024 1024" version="1.1" xmlns="http://www.w3.org/2000/svg" p-id="1534" xmlns:xlink="http://www.w3.org/1999/xlink" width="200" height="200"><path d="M900.32 660.8c3.232 30.88 38.272 182.016 79.392 238.176 41.152 56.16 0 59.488 0 59.488-82.848-2.688-138.912-277.824-138.912-277.824-174.752 0-258.016-238.176-258.016-238.176V263.872c24-48.288 59.52 0 59.52 0v158.752s80.128 198.464 178.624 198.464c98.432 0 98.016-90.784 99.264-158.752 1.248-67.936-80.864-337.408-337.408-337.408-256.512 0-317.568 158.816-317.568 158.816l-19.84 178.592c-2.4 21.824-162.752 74.976-158.752 138.976 4 63.968 174.464 218.432 337.376 99.2 71.264-56.864 99.232 19.872 99.232 19.872v218.336c-35.712 44.704-59.52 0-59.52 0v-198.496c-27.392 27.328-55.936 59.552-158.784 59.552-208.32 0-289.28-165.6-277.856-238.208 7.04-44.672 158.752-119.072 158.752-119.072l19.872-158.752s49.408-218.336 357.248-218.336c307.776 0 410.56 256.768 416.768 396.928 6.24 140.192-79.392 198.464-79.392 198.464z" fill="" p-id="1535"></path><path d="M825.44 324.864a24.864 24.864 0 0 0-12.096 32.992c19.328 41.6 42.304 112.928 32.928 141.184a24.992 24.992 0 0 0 4.864 24.576 25.024 25.024 0 0 0 23.744 7.872 25.152 25.152 0 0 0 18.56-16.864c19.168-58.016-29.504-165.664-35.136-177.728a24.768 24.768 0 0 0-32.864-12.032zM140.768 639.008c17.6-20.544 26.72-9.888 46.432 0 19.68 9.856 42.112 39.168 120.864 34.944 78.752-4.224 68.32-54.496 102.912-33.536 25.312 15.328-2.272 45.632-33.952 61.888-36.576 18.688-94.048 33.12-191.264-14.624 0.032-0.032-61.856-28.992-44.992-48.672z" fill="" p-id="1536"></path></svg>